<?xml version="1.0" standalone="no"?>
<!DOCTYPE svg PUBLIC "-//W3C//DTD SVG 20010904//EN"
 "http://www.w3.org/TR/2001/REC-SVG-20010904/DTD/svg10.dtd">
<svg version="1.0" xmlns="http://www.w3.org/2000/svg"
 width="300.000000pt" height="300.000000pt" viewBox="0 0 300.000000 300.000000"
 preserveAspectRatio="xMidYMid meet">
<metadata>
Created by potrace 1.10, written by Peter Selinger 2001-2011
</metadata>
<g transform="translate(0.000000,300.000000) scale(0.100000,-0.100000)"
fill="#000000" stroke="none">
<path d="M680 2330 c-20 -20 -20 -33 -20 -823 0 -766 1 -805 18 -820 17 -16
89 -17 824 -17 767 0 806 1 821 18 16 17 17 88 17 820 0 789 0 802 -20 822
-20 20 -33 20 -820 20 -787 0 -800 0 -820 -20z m1634 -6 c14 -14 16 -101 16
-814 0 -713 -2 -800 -16 -814 -14 -14 -101 -16 -814 -16 -713 0 -800 2 -814
16 -14 14 -16 101 -16 814 0 713 2 800 16 814 14 14 101 16 814 16 713 0 800
-2 814 -16z"/>
<path d="M1451 1793 c-25 -22 -241 -486 -241 -519 0 -31 26 -54 58 -53 15 0
83 33 152 73 115 66 125 74 125 101 0 21 -7 33 -25 43 -23 13 -30 11 -82 -19
-32 -18 -58 -37 -58 -41 0 -13 36 -9 66 7 34 17 58 20 49 5 -17 -28 -212 -133
-232 -126 -21 8 -13 35 54 175 78 163 109 232 118 261 9 29 50 70 69 70 19 0
43 -30 67 -85 20 -48 32 -73 133 -287 54 -114 56 -121 35 -125 -11 -3 -32 32
-77 127 -34 72 -62 135 -62 140 0 6 -4 10 -8 10 -4 0 -14 16 -21 37 -12 33
-55 82 -73 83 -33 1 -142 -209 -136 -262 4 -30 10 -21 66 94 34 70 62 132 62
138 0 32 25 -12 110 -196 52 -113 100 -210 107 -215 21 -18 66 -6 82 22 13 24
8 38 -103 275 -64 137 -126 257 -137 267 -12 9 -34 17 -49 17 -15 0 -37 -8
-49 -17z"/>
</g>
</svg>
